<?xml version="1.0" encoding="utf-8"?>
<!-- Generator: Adobe Illustrator 21.1.0, SVG Export Plug-In . SVG Version: 6.00 Build 0)  -->
<svg version="1.1" id="Layer_1" xmlns="http://www.w3.org/2000/svg" xmlns:xlink="http://www.w3.org/1999/xlink" x="0px" y="0px"
	 viewBox="0 0 436 583" style="enable-background:new 0 0 436 583;" xml:space="preserve">
<style type="text/css">
	.st0{fill:#FFFFFF;}
	.st1{fill:#80D0F8;}
	.st2{fill:url(#a_2_);}
	.st3{fill:none;stroke:#ADBACC;stroke-width:2;stroke-opacity:0.15;}
	.st4{fill:#40A9F1;fill-opacity:8.000000e-02;}
	.st5{fill:#DEFAFE;fill-opacity:0.5;}
	.st6{fill:#ADBACC;fill-opacity:0.2;}
	.st7{fill:#ADBACC;fill-opacity:8.000000e-02;}
	.st8{fill:#F5F6F8;}
	.st9{fill:none;stroke:#ADBACC;stroke-width:2;stroke-opacity:0.4;}
	.st10{fill:none;stroke:#DEE3EA;stroke-width:2;}
	.st11{opacity:0.5;fill:#5421FF;enable-background:new    ;}
	.st12{fill:none;stroke:#E6EAEF;stroke-width:2;}
	.st13{fill:#ADBACC;fill-opacity:0.3;}
	.st14{fill:#B3A7E2;}
	.st15{fill:#FFD57F;}
	.st16{fill:#FFD580;}
	.st17{fill:#B9F4BC;}
	.st18{fill:#00A1F2;fill-opacity:0.5;}
	.st19{fill:#E6EAEF;}
	.st20{fill:#ADBACC;}
	.st21{font-family:'Arial-BoldMT';}
	.st22{font-size:16px;}
	.st23{fill:#9B5C8F;}
</style>
<g>
	<path class="st0" d="M5,0h426c2.8,0,5,2.2,5,5v573c0,2.8-2.2,5-5,5H5c-2.8,0-5-2.2-5-5V5C0,2.2,2.2,0,5,0z"/>
	<g>
		<rect id="a" x="1" y="38" class="st1" width="434" height="126"/>
	</g>
	<g>
		
			<linearGradient id="a_2_" gradientUnits="userSpaceOnUse" x1="142.6705" y1="368.7222" x2="143.6705" y2="367.7222" gradientTransform="matrix(434 0 0 -126 -61918 46497)">
			<stop  offset="0" style="stop-color:#71D0FF"/>
			<stop  offset="1" style="stop-color:#99F5E0"/>
		</linearGradient>
		<rect id="a_1_" x="1" y="38" class="st2" width="434" height="126"/>
	</g>
	<path class="st3" d="M5,1h426c2.2,0,4,1.8,4,4v573c0,2.2-1.8,4-4,4H5c-2.2,0-4-1.8-4-4V5C1,2.8,2.8,1,5,1z"/>
	<path class="st4" d="M46,80h103c1.1,0,2,0.9,2,2v4c0,1.1-0.9,2-2,2H46c-1.1,0-2-0.9-2-2v-4C44,80.9,44.9,80,46,80z"/>
	<path class="st0" d="M46,81h103c0.6,0,1,0.4,1,1v3c0,0.6-0.4,1-1,1H46c-0.6,0-1-0.4-1-1v-3C45,81.4,45.4,81,46,81z"/>
	<path class="st5" d="M46,102h138c0.6,0,1,0.4,1,1v3c0,0.6-0.4,1-1,1H46c-0.6,0-1-0.4-1-1v-3C45,102.4,45.4,102,46,102z"/>
	<path class="st5" d="M46,114h103c0.6,0,1,0.4,1,1v3c0,0.6-0.4,1-1,1H46c-0.6,0-1-0.4-1-1v-3C45,114.4,45.4,114,46,114z"/>
	<path class="st6" d="M137,19h28c0.6,0,1,0.4,1,1v1c0,0.6-0.4,1-1,1h-28c-0.6,0-1-0.4-1-1v-1C136,19.4,136.4,19,137,19z"/>
	<path class="st6" d="M179,19h28c0.6,0,1,0.4,1,1v1c0,0.6-0.4,1-1,1h-28c-0.6,0-1-0.4-1-1v-1C178,19.4,178.4,19,179,19z"/>
	<path class="st6" d="M221,19h18c0.6,0,1,0.4,1,1v1c0,0.6-0.4,1-1,1h-18c-0.6,0-1-0.4-1-1v-1C220,19.4,220.4,19,221,19z"/>
	<rect x="1" y="164" class="st7" width="434" height="2"/>
	<rect x="2" y="202" class="st8" width="432" height="2"/>
	<rect x="2" y="391" class="st8" width="432" height="2"/>
	<path class="st6" d="M349,19h35c0.6,0,1,0.4,1,1v1c0,0.6-0.4,1-1,1h-35c-0.6,0-1-0.4-1-1v-1C348,19.4,348.4,19,349,19z"/>
	<path class="st6" d="M398,19h18c0.6,0,1,0.4,1,1v1c0,0.6-0.4,1-1,1h-18c-0.6,0-1-0.4-1-1v-1C397,19.4,397.4,19,398,19z"/>
	<path class="st9" d="M16,179h8c0.6,0,1,0.4,1,1v8c0,0.6-0.4,1-1,1h-8c-0.6,0-1-0.4-1-1v-8C15,179.4,15.4,179,16,179z"/>
	<rect x="32" y="183" class="st8" width="30" height="2"/>
	<path class="st6" d="M135,179c0-0.6,0.4-1,1-1h38c0.6,0,1,0.5,1,1v10c0,0.6-0.4,1-1,1h-38c-0.6,0-1-0.5-1-1V179z M177,179
		c0-0.6,0.4-1,1-1h38c0.6,0,1,0.5,1,1v10c0,0.6-0.4,1-1,1h-38c-0.6,0-1-0.5-1-1V179z M219,179c0-0.6,0.4-1,1-1h38c0.5,0,1,0.5,1,1
		v10c0,0.6-0.4,1-1,1h-38c-0.6,0-1-0.5-1-1V179z M261,179c0-0.6,0.4-1,1-1h38c0.5,0,1,0.5,1,1v10c0,0.6-0.4,1-1,1h-38
		c-0.5,0-1-0.5-1-1V179z"/>
	<circle class="st10" cx="415" cy="183" r="4"/>
	<path class="st10" d="M417.5,185.5l3.5,3.5"/>
	<g transform="translate(70 270)">
		<path class="st11" d="M40,3.7h-5.9C32.9,3.7,25.8,0,19.3,0c-6.5,0-10.2,0.9-12,1.9C5.5,2.8,0.5,3.1,0.5,3.1s-0.9,5-0.3,5
			c0.6,0,3.1,0.3,3.1,3.7S6.4,28,19.6,28c13.3,0,17-14.3,17-16.8S36,7.8,36,7.8V6.2h8v1.6c0,0-0.6,0.9-0.6,3.4S47.1,28,60.4,28
			c13.3,0,16.3-12.8,16.3-16.2s2.5-3.7,3.1-3.7c0.6,0-0.3-5-0.3-5s-4.9-0.3-6.8-1.2c-1.9-1-5.6-1.9-12-1.9c-6.5,0-13.6,3.7-14.8,3.7
			H40z"/>
		<circle class="st12" cx="14" cy="49" r="5"/>
		<circle class="st13" cx="29" cy="49" r="3"/>
		<circle class="st14" cx="14" cy="49" r="3"/>
	</g>
	<path class="st15" d="M326,273.7h-5.9c-1.2,0-8.3-3.7-14.8-3.7c-6.5,0-10.2,0.9-12,1.9c-1.9,0.9-6.8,1.2-6.8,1.2s-0.9,5-0.3,5
		c0.6,0,3.1,0.3,3.1,3.7s3.1,16.2,16.3,16.2c13.3,0,17-14.3,17-16.8s-0.6-3.4-0.6-3.4v-1.6h8v1.6c0,0-0.6,0.9-0.6,3.4
		c0,2.5,3.7,16.8,17,16.8c13.3,0,16.3-12.8,16.3-16.2s2.5-3.7,3.1-3.7c0.6,0-0.3-5-0.3-5s-4.9-0.3-6.8-1.2c-1.9-0.9-5.5-1.9-12-1.9
		c-6.5,0-13.6,3.7-14.8,3.7H326z"/>
	<circle class="st12" cx="299" cy="319" r="5"/>
	<circle class="st13" cx="314" cy="319" r="3"/>
	<circle class="st16" cx="299" cy="319" r="3"/>
	<path class="st17" d="M110,462.7h-5.9c-1.2,0-8.3-3.7-14.8-3.7c-6.5,0-10.2,0.9-12,1.9c-1.8,0.9-6.8,1.2-6.8,1.2s-0.9,5-0.3,5
		c0.6,0,3.1,0.3,3.1,3.7S76.4,487,89.6,487c13.3,0,17-14.3,17-16.8s-0.6-3.4-0.6-3.4v-1.6h8v1.6c0,0-0.6,0.9-0.6,3.4
		c0,2.5,3.7,16.8,17,16.8c13.3,0,16.3-12.8,16.3-16.2s2.5-3.7,3.1-3.7c0.6,0-0.3-5-0.3-5s-4.9-0.3-6.8-1.2c-1.9-0.9-5.6-1.9-12-1.9
		c-6.5,0-13.6,3.7-14.8,3.7H110z"/>
	<circle class="st12" cx="84" cy="508" r="5"/>
	<circle class="st13" cx="99" cy="508" r="3"/>
	<circle class="st17" cx="84" cy="508" r="3"/>
	<path class="st18" d="M326,462.7h-5.9c-1.2,0-8.3-3.7-14.8-3.7c-6.5,0-10.2,0.9-12,1.9c-1.9,0.9-6.8,1.2-6.8,1.2s-0.9,5-0.3,5
		c0.6,0,3.1,0.3,3.1,3.7s3.1,16.2,16.3,16.2c13.3,0,17-14.3,17-16.8s-0.6-3.4-0.6-3.4v-1.6h8v1.6c0,0-0.6,0.9-0.6,3.4
		c0,2.5,3.7,16.8,17,16.8c13.3,0,16.3-12.8,16.3-16.2s2.5-3.7,3.1-3.7c0.6,0-0.3-5-0.3-5s-4.9-0.3-6.8-1.2c-1.9-0.9-5.5-1.9-12-1.9
		c-6.5,0-13.6,3.7-14.8,3.7H326z"/>
	<circle class="st12" cx="299" cy="508" r="5"/>
	<circle class="st13" cx="314" cy="508" r="3"/>
	<circle class="st1" cx="299" cy="508" r="3"/>
	<rect x="217" y="204" class="st8" width="2" height="377"/>
	<path class="st19" d="M141,323l4.2-4.2c1.1-1.1,1.1-2.9,0-4c-1.1-1.1-2.9-1.1-4,0c0,0,0,0,0,0h-0.2c-1.1-1.1-2.9-1.1-4,0
		c0,0,0,0,0,0c-1.1,1.1-1.1,2.9,0,4L141,323L141,323z M356,323l4.2-4.2c1.1-1.1,1.1-2.9,0-4c-1.1-1.1-2.9-1.1-4,0c0,0,0,0,0,0h-0.2
		c-1.1-1.1-2.9-1.1-4,0c0,0,0,0,0,0c-1.1,1.1-1.1,2.9,0,4L356,323z M141,512l4.2-4.2c1.1-1.1,1.1-2.9,0-4c-1.1-1.1-2.9-1.1-4,0
		c0,0,0,0,0,0h-0.2c-1.1-1.1-2.9-1.1-4,0c0,0,0,0,0,0c-1.1,1.1-1.1,2.9,0,4L141,512L141,512z M356,512l4.2-4.2c1.1-1.1,1.1-2.9,0-4
		c-1.1-1.1-2.9-1.1-4,0c0,0,0,0,0,0h-0.2c-1.1-1.1-2.9-1.1-4,0c0,0,0,0,0,0c-1.1,1.1-1.1,2.9,0,4L356,512z"/>
	<text transform="matrix(1 0 0 1 15 22)" class="st20 st21 st22">Online Shop</text>
</g>
<g>
	<path class="st23" d="M206.5,78.5H268c3.9,0,7,3.2,7,7V109c0,3.9-3.2,7-7,7h-22.1l3,7.4l-13.3-7.4h-29.1c-3.9,0-7-3.2-7-7V85.6
		C199.4,81.7,202.6,78.5,206.5,78.5z"/>
	<path class="st0" d="M203.2,84.9c0.4-0.6,1.1-0.9,1.9-1c1.6-0.1,2.5,0.6,2.7,2.2c1,6.5,2,11.9,3.1,16.4l6.8-12.9
		c0.6-1.2,1.4-1.8,2.3-1.9c1.4-0.1,2.2,0.8,2.5,2.6c0.8,4.1,1.8,7.6,2.9,10.6c0.8-7.8,2.2-13.5,4.1-17c0.5-0.9,1.1-1.3,2-1.4
		c0.7-0.1,1.4,0.2,1.9,0.6c0.6,0.5,0.9,1.1,1,1.8c0,0.6-0.1,1-0.3,1.5c-1.2,2.2-2.2,6-3,11.2c-0.8,5-1.1,9-0.9,11.8
		c0.1,0.8-0.1,1.5-0.4,2c-0.4,0.7-0.9,1.1-1.6,1.1c-0.8,0.1-1.6-0.3-2.4-1.1c-2.9-2.9-5.2-7.3-6.8-13.2c-2,4-3.5,6.9-4.4,8.9
		c-1.8,3.5-3.4,5.3-4.7,5.4c-0.8,0.1-1.5-0.6-2.2-2.1c-1.6-4-3.3-11.9-5.1-23.4C202.6,86.2,202.8,85.5,203.2,84.9z"/>
	<path class="st0" d="M269.6,89.8c-1.1-1.9-2.7-3.1-4.9-3.6c-0.6-0.1-1.1-0.2-1.7-0.2c-3,0-5.4,1.5-7.3,4.6
		c-1.6,2.6-2.4,5.5-2.4,8.7c0,2.4,0.5,4.4,1.5,6.1c1.1,1.9,2.7,3.1,4.9,3.6c0.6,0.1,1.1,0.2,1.7,0.2c3,0,5.4-1.5,7.3-4.6
		c1.6-2.7,2.4-5.6,2.4-8.7C271.1,93.4,270.6,91.4,269.6,89.8L269.6,89.8z M265.8,98.3c-0.4,2-1.2,3.6-2.3,4.6
		c-0.9,0.8-1.7,1.1-2.5,1c-0.7-0.2-1.4-0.8-1.8-2c-0.4-1-0.6-1.9-0.6-2.8c0-0.8,0.1-1.5,0.2-2.3c0.3-1.3,0.8-2.5,1.6-3.7
		c1-1.5,2.1-2.1,3.2-1.9c0.7,0.2,1.4,0.8,1.8,2c0.4,1,0.6,1.9,0.6,2.8C266,96.8,265.9,97.6,265.8,98.3L265.8,98.3z"/>
	<path class="st0" d="M250.3,89.8c-1.1-1.9-2.8-3.1-4.9-3.6c-0.6-0.1-1.1-0.2-1.7-0.2c-3,0-5.4,1.5-7.3,4.6
		c-1.6,2.6-2.4,5.5-2.4,8.7c0,2.4,0.5,4.4,1.5,6.1c1.1,1.9,2.7,3.1,4.9,3.6c0.6,0.1,1.1,0.2,1.7,0.2c3,0,5.4-1.5,7.3-4.6
		c1.6-2.7,2.4-5.6,2.4-8.7C251.8,93.4,251.3,91.4,250.3,89.8L250.3,89.8z M246.4,98.3c-0.4,2-1.2,3.6-2.3,4.6
		c-0.9,0.8-1.7,1.1-2.5,1c-0.7-0.2-1.4-0.8-1.8-2c-0.4-1-0.6-1.9-0.6-2.8c0-0.8,0.1-1.5,0.2-2.3c0.3-1.3,0.8-2.5,1.6-3.7
		c1-1.5,2.1-2.1,3.2-1.9c0.7,0.2,1.4,0.8,1.8,2c0.4,1,0.6,1.9,0.6,2.8C246.6,96.8,246.5,97.6,246.4,98.3L246.4,98.3z"/>
	<g>
		<g>
			<path class="st0" d="M282.8,89.5c-2.1,2-3.1,4.6-3.1,7.8c0,3.4,1,6.1,3.1,8.2c2,2.1,4.7,3.1,8,3.1c1,0,2-0.2,3.2-0.5v-5
				c-1.1,0.3-2,0.5-2.8,0.5c-1.6,0-2.9-0.6-3.9-1.6c-1-1.1-1.5-2.6-1.5-4.5c0-1.8,0.5-3.2,1.5-4.3c1-1.1,2.2-1.7,3.7-1.7
				c1,0,2,0.2,3.1,0.5v-5c-1-0.3-2.2-0.4-3.4-0.4C287.5,86.4,284.9,87.4,282.8,89.5z M304.3,86.4c-2.8,0-5.1,1-6.7,2.8
				c-1.6,1.9-2.4,4.5-2.4,7.9c0,3.7,0.8,6.5,2.4,8.4c1.6,1.9,3.9,2.9,6.9,2.9c2.9,0,5.2-1,6.8-2.9c1.6-1.9,2.4-4.7,2.4-8.2
				s-0.8-6.2-2.4-8.2C309.6,87.4,307.3,86.4,304.3,86.4z M306.7,102.5c-0.6,0.9-1.4,1.3-2.4,1.3c-1,0-1.7-0.4-2.3-1.3
				c-0.5-0.9-0.8-2.6-0.8-5.2c0-4,1-6.1,3.1-6.1c2.2,0,3.3,2,3.3,6.1C307.6,99.9,307.3,101.6,306.7,102.5z M328.9,87l-1.1,4.7
				c-0.3,1.2-0.6,2.4-0.8,3.7l-0.6,3.3c-0.6-3.3-1.4-7.2-2.4-11.7h-7.2l-2.7,21h5.4l1.5-14.5l3.7,14.5h3.8l3.5-14.5l1.5,14.5h5.6
				l-2.8-21L328.9,87L328.9,87z M354.7,87l-1.1,4.7c-0.3,1.2-0.6,2.4-0.8,3.7l-0.6,3.3c-0.6-3.3-1.4-7.2-2.4-11.7h-7.2l-2.7,21h5.4
				l1.5-14.5l3.7,14.5h3.8l3.5-14.5l1.5,14.5h5.6L362,87H354.7z M372.2,99.7h5v-4.4h-5v-3.9h5.8V87h-11.5v21H378v-4.5h-5.8V99.7z
				 M394,96.4c0.6-1,0.9-1.9,0.9-3c0-2-0.8-3.6-2.3-4.7c-1.5-1.1-3.7-1.7-6.3-1.7h-6.6v21h5.7v-9.6h0.1l4.6,9.6h6l-4.5-9.5
				C392.5,98.1,393.4,97.4,394,96.4z M385.3,96.1v-5c1.4,0,2.3,0.2,2.9,0.7c0.6,0.4,0.9,1.1,0.9,2.1C389.1,95.3,387.8,96,385.3,96.1
				z M398.2,89.5c-2.1,2-3.1,4.6-3.1,7.8c0,3.4,1,6.1,3.1,8.2c2,2.1,4.7,3.1,8,3.1c1,0,2-0.2,3.2-0.5v-5c-1.1,0.3-2,0.5-2.8,0.5
				c-1.6,0-2.9-0.6-3.9-1.6c-1-1.1-1.5-2.6-1.5-4.5c0-1.8,0.5-3.2,1.5-4.3c1-1.1,2.2-1.7,3.7-1.7c1,0,2,0.2,3.1,0.5v-5
				c-1-0.3-2.2-0.4-3.4-0.4C402.9,86.4,400.3,87.4,398.2,89.5z M416.7,103.5v-3.8h5v-4.4h-5v-3.9h5.8V87H411v21h11.5v-4.5
				L416.7,103.5L416.7,103.5z"/>
		</g>
	</g>
</g>
</svg>
