<?xml version="1.0" encoding="utf-8"?>
<!-- Generator: Adobe Illustrator 21.1.0, SVG Export Plug-In . SVG Version: 6.00 Build 0)  -->
<svg version="1.1" id="Layer_1" xmlns="http://www.w3.org/2000/svg" xmlns:xlink="http://www.w3.org/1999/xlink" x="0px" y="0px"
	 viewBox="0 0 436 583" style="enable-background:new 0 0 436 583;" xml:space="preserve">
<style type="text/css">
	.st0{fill:#FFFFFF;}
	.st1{fill:#80D0F8;}
	.st2{fill:url(#a_2_);}
	.st3{fill:none;stroke:#ADBACC;stroke-width:2;stroke-opacity:0.15;}
	.st4{fill:#40A9F1;fill-opacity:8.000000e-02;}
	.st5{fill:#DEFAFE;fill-opacity:0.5;}
	.st6{fill:#ADBACC;fill-opacity:0.2;}
	.st7{fill:#ADBACC;fill-opacity:8.000000e-02;}
	.st8{fill:#F5F6F8;}
	.st9{fill:none;stroke:#ADBACC;stroke-width:2;stroke-opacity:0.4;}
	.st10{fill:none;stroke:#DEE3EA;stroke-width:2;}
	.st11{opacity:0.5;fill:#5421FF;enable-background:new    ;}
	.st12{fill:none;stroke:#E6EAEF;stroke-width:2;}
	.st13{fill:#ADBACC;fill-opacity:0.3;}
	.st14{fill:#B3A7E2;}
	.st15{fill:#FFD57F;}
	.st16{fill:#FFD580;}
	.st17{fill:#B9F4BC;}
	.st18{fill:#00A1F2;fill-opacity:0.5;}
	.st19{fill:#E6EAEF;}
	.st20{fill:#ADBACC;}
	.st21{font-family:'Arial-BoldMT';}
	.st22{font-size:16px;}
</style>
<g>
	<path class="st0" d="M5,0h426c2.8,0,5,2.2,5,5v573c0,2.8-2.2,5-5,5H5c-2.8,0-5-2.2-5-5V5C0,2.2,2.2,0,5,0z"/>
	<g>
		<rect id="a" x="1" y="38" class="st1" width="434" height="126"/>
	</g>
	<g>
		
			<linearGradient id="a_2_" gradientUnits="userSpaceOnUse" x1="142.6705" y1="368.7222" x2="143.6705" y2="367.7222" gradientTransform="matrix(434 0 0 -126 -61918 46497)">
			<stop  offset="0" style="stop-color:#71D0FF"/>
			<stop  offset="1" style="stop-color:#99F5E0"/>
		</linearGradient>
		<rect id="a_1_" x="1" y="38" class="st2" width="434" height="126"/>
	</g>
	<path class="st3" d="M5,1h426c2.2,0,4,1.8,4,4v573c0,2.2-1.8,4-4,4H5c-2.2,0-4-1.8-4-4V5C1,2.8,2.8,1,5,1z"/>
	<path class="st4" d="M46,80h103c1.1,0,2,0.9,2,2v4c0,1.1-0.9,2-2,2H46c-1.1,0-2-0.9-2-2v-4C44,80.9,44.9,80,46,80z"/>
	<path class="st0" d="M46,81h103c0.6,0,1,0.4,1,1v3c0,0.6-0.4,1-1,1H46c-0.6,0-1-0.4-1-1v-3C45,81.4,45.4,81,46,81z"/>
	<path class="st5" d="M46,102h138c0.6,0,1,0.4,1,1v3c0,0.6-0.4,1-1,1H46c-0.6,0-1-0.4-1-1v-3C45,102.4,45.4,102,46,102z"/>
	<path class="st5" d="M46,114h103c0.6,0,1,0.4,1,1v3c0,0.6-0.4,1-1,1H46c-0.6,0-1-0.4-1-1v-3C45,114.4,45.4,114,46,114z"/>
	<path class="st6" d="M137,19h28c0.6,0,1,0.4,1,1v1c0,0.6-0.4,1-1,1h-28c-0.6,0-1-0.4-1-1v-1C136,19.4,136.4,19,137,19z"/>
	<path class="st6" d="M179,19h28c0.6,0,1,0.4,1,1v1c0,0.6-0.4,1-1,1h-28c-0.6,0-1-0.4-1-1v-1C178,19.4,178.4,19,179,19z"/>
	<path class="st6" d="M221,19h18c0.6,0,1,0.4,1,1v1c0,0.6-0.4,1-1,1h-18c-0.6,0-1-0.4-1-1v-1C220,19.4,220.4,19,221,19z"/>
	<rect x="1" y="164" class="st7" width="434" height="2"/>
	<rect x="2" y="202" class="st8" width="432" height="2"/>
	<rect x="2" y="391" class="st8" width="432" height="2"/>
	<path class="st6" d="M349,19h35c0.6,0,1,0.4,1,1v1c0,0.6-0.4,1-1,1h-35c-0.6,0-1-0.4-1-1v-1C348,19.4,348.4,19,349,19z"/>
	<path class="st6" d="M398,19h18c0.6,0,1,0.4,1,1v1c0,0.6-0.4,1-1,1h-18c-0.6,0-1-0.4-1-1v-1C397,19.4,397.4,19,398,19z"/>
	<path class="st9" d="M16,179h8c0.6,0,1,0.4,1,1v8c0,0.6-0.4,1-1,1h-8c-0.6,0-1-0.4-1-1v-8C15,179.4,15.4,179,16,179z"/>
	<rect x="32" y="183" class="st8" width="30" height="2"/>
	<path class="st6" d="M135,179c0-0.6,0.4-1,1-1h38c0.6,0,1,0.5,1,1v10c0,0.6-0.4,1-1,1h-38c-0.6,0-1-0.5-1-1V179z M177,179
		c0-0.6,0.4-1,1-1h38c0.6,0,1,0.5,1,1v10c0,0.6-0.4,1-1,1h-38c-0.6,0-1-0.5-1-1V179z M219,179c0-0.6,0.4-1,1-1h38c0.5,0,1,0.5,1,1
		v10c0,0.6-0.4,1-1,1h-38c-0.6,0-1-0.5-1-1V179z M261,179c0-0.6,0.4-1,1-1h38c0.5,0,1,0.5,1,1v10c0,0.6-0.4,1-1,1h-38
		c-0.5,0-1-0.5-1-1V179z"/>
	<circle class="st10" cx="415" cy="183" r="4"/>
	<path class="st10" d="M417.5,185.5l3.5,3.5"/>
	<g transform="translate(70 270)">
		<path class="st11" d="M40,3.7h-5.9C32.9,3.7,25.8,0,19.3,0c-6.5,0-10.2,0.9-12,1.9C5.5,2.8,0.5,3.1,0.5,3.1s-0.9,5-0.3,5
			c0.6,0,3.1,0.3,3.1,3.7S6.4,28,19.6,28c13.3,0,17-14.3,17-16.8S36,7.8,36,7.8V6.2h8v1.6c0,0-0.6,0.9-0.6,3.4S47.1,28,60.4,28
			c13.3,0,16.3-12.8,16.3-16.2s2.5-3.7,3.1-3.7c0.6,0-0.3-5-0.3-5s-4.9-0.3-6.8-1.2c-1.9-1-5.6-1.9-12-1.9c-6.5,0-13.6,3.7-14.8,3.7
			H40z"/>
		<circle class="st12" cx="14" cy="49" r="5"/>
		<circle class="st13" cx="29" cy="49" r="3"/>
		<circle class="st14" cx="14" cy="49" r="3"/>
	</g>
	<path class="st15" d="M326,273.7h-5.9c-1.2,0-8.3-3.7-14.8-3.7c-6.5,0-10.2,0.9-12,1.9c-1.9,0.9-6.8,1.2-6.8,1.2s-0.9,5-0.3,5
		c0.6,0,3.1,0.3,3.1,3.7s3.1,16.2,16.3,16.2c13.3,0,17-14.3,17-16.8s-0.6-3.4-0.6-3.4v-1.6h8v1.6c0,0-0.6,0.9-0.6,3.4
		c0,2.5,3.7,16.8,17,16.8c13.3,0,16.3-12.8,16.3-16.2s2.5-3.7,3.1-3.7c0.6,0-0.3-5-0.3-5s-4.9-0.3-6.8-1.2c-1.9-0.9-5.5-1.9-12-1.9
		c-6.5,0-13.6,3.7-14.8,3.7H326z"/>
	<circle class="st12" cx="299" cy="319" r="5"/>
	<circle class="st13" cx="314" cy="319" r="3"/>
	<circle class="st16" cx="299" cy="319" r="3"/>
	<path class="st17" d="M110,462.7h-5.9c-1.2,0-8.3-3.7-14.8-3.7c-6.5,0-10.2,0.9-12,1.9c-1.8,0.9-6.8,1.2-6.8,1.2s-0.9,5-0.3,5
		c0.6,0,3.1,0.3,3.1,3.7S76.4,487,89.6,487c13.3,0,17-14.3,17-16.8s-0.6-3.4-0.6-3.4v-1.6h8v1.6c0,0-0.6,0.9-0.6,3.4
		c0,2.5,3.7,16.8,17,16.8c13.3,0,16.3-12.8,16.3-16.2s2.5-3.7,3.1-3.7c0.6,0-0.3-5-0.3-5s-4.9-0.3-6.8-1.2c-1.9-0.9-5.6-1.9-12-1.9
		c-6.5,0-13.6,3.7-14.8,3.7H110z"/>
	<circle class="st12" cx="84" cy="508" r="5"/>
	<circle class="st13" cx="99" cy="508" r="3"/>
	<circle class="st17" cx="84" cy="508" r="3"/>
	<path class="st18" d="M326,462.7h-5.9c-1.2,0-8.3-3.7-14.8-3.7c-6.5,0-10.2,0.9-12,1.9c-1.9,0.9-6.8,1.2-6.8,1.2s-0.9,5-0.3,5
		c0.6,0,3.1,0.3,3.1,3.7s3.1,16.2,16.3,16.2c13.3,0,17-14.3,17-16.8s-0.6-3.4-0.6-3.4v-1.6h8v1.6c0,0-0.6,0.9-0.6,3.4
		c0,2.5,3.7,16.8,17,16.8c13.3,0,16.3-12.8,16.3-16.2s2.5-3.7,3.1-3.7c0.6,0-0.3-5-0.3-5s-4.9-0.3-6.8-1.2c-1.9-0.9-5.5-1.9-12-1.9
		c-6.5,0-13.6,3.7-14.8,3.7H326z"/>
	<circle class="st12" cx="299" cy="508" r="5"/>
	<circle class="st13" cx="314" cy="508" r="3"/>
	<circle class="st1" cx="299" cy="508" r="3"/>
	<rect x="217" y="204" class="st8" width="2" height="377"/>
	<path class="st19" d="M141,323l4.2-4.2c1.1-1.1,1.1-2.9,0-4c-1.1-1.1-2.9-1.1-4,0c0,0,0,0,0,0h-0.2c-1.1-1.1-2.9-1.1-4,0
		c0,0,0,0,0,0c-1.1,1.1-1.1,2.9,0,4L141,323L141,323z M356,323l4.2-4.2c1.1-1.1,1.1-2.9,0-4c-1.1-1.1-2.9-1.1-4,0c0,0,0,0,0,0h-0.2
		c-1.1-1.1-2.9-1.1-4,0c0,0,0,0,0,0c-1.1,1.1-1.1,2.9,0,4L356,323z M141,512l4.2-4.2c1.1-1.1,1.1-2.9,0-4c-1.1-1.1-2.9-1.1-4,0
		c0,0,0,0,0,0h-0.2c-1.1-1.1-2.9-1.1-4,0c0,0,0,0,0,0c-1.1,1.1-1.1,2.9,0,4L141,512L141,512z M356,512l4.2-4.2c1.1-1.1,1.1-2.9,0-4
		c-1.1-1.1-2.9-1.1-4,0c0,0,0,0,0,0h-0.2c-1.1-1.1-2.9-1.1-4,0c0,0,0,0,0,0c-1.1,1.1-1.1,2.9,0,4L356,512z"/>
	<text transform="matrix(1 0 0 1 15 22)" class="st20 st21 st22">Online Shop</text>
</g>
</svg>
