<?xml version="1.0" encoding="utf-8"?>
<!-- Generator: Adobe Illustrator 21.1.0, SVG Export Plug-In . SVG Version: 6.00 Build 0)  -->
<svg version="1.1" id="Layer_1" xmlns="http://www.w3.org/2000/svg" xmlns:xlink="http://www.w3.org/1999/xlink" x="0px" y="0px"
	 viewBox="0 0 420 338" style="enable-background:new 0 0 420 338;" xml:space="preserve">
<style type="text/css">
	.st0{filter:url(#Adobe_OpacityMaskFilter);}
	.st1{fill:#FFFFFF;}
	.st2{mask:url(#c);}
	.st3{fill:#4D394B;fill-opacity:7.000000e-02;}
	.st4{fill:url(#SVGID_1_);}
	.st5{fill:#FFFFFF;fill-opacity:0.4;}
	.st6{fill:none;stroke:#F0F3F6;stroke-width:2;}
	.st7{fill:#F0F3F6;}
	.st8{opacity:0.4;fill:#E6EBEF;enable-background:new    ;}
	.st9{fill:#DFE5EB;}
	.st10{fill:none;stroke:#E6EBEF;stroke-width:4;}
	.st11{fill:#2A0B2A;fill-opacity:0.15;}
	.st12{fill:#E6EBEF;}
	.st13{fill:url(#SVGID_2_);}
	.st14{opacity:0.5;fill:#FFFFFF;enable-background:new    ;}
	.st15{fill:#2A0B2A;fill-opacity:0.2;}
	.st16{filter:url(#e);}
	.st17{fill:#40BB91;}
	.st18{fill:url(#f_4_);}
	.st19{filter:url(#h);}
	.st20{filter:url(#i);}
	.st21{fill:#38B286;}
	.st22{filter:url(#k);}
	.st23{filter:url(#m);}
	.st24{filter:url(#o);}
	.st25{filter:url(#q);}
	.st26{fill:#FFFFFF;fill-opacity:0.35;}
	.st27{opacity:0.3;fill:#FFFFFF;enable-background:new    ;}
	.st28{fill:none;stroke:#FFFFFF;stroke-opacity:0.3;}
	.st29{opacity:0.15;fill:#FFFFFF;enable-background:new    ;}
	.st30{opacity:0.2;fill:#FFFFFF;enable-background:new    ;}
	.st31{fill:none;stroke:#ADBACC;stroke-width:2;stroke-opacity:0.2;}
	.st32{fill:#00749A;}
	.st33{fill:#464342;}
</style>
<filter  filterUnits="objectBoundingBox" height="200%" id="q" width="200%" x="-50%" y="-50%">
	<feOffset  dy="1" in="SourceAlpha" result="shadowOffsetOuter1"></feOffset>
	<feGaussianBlur  in="shadowOffsetOuter1" result="shadowBlurOuter1" stdDeviation="1"></feGaussianBlur>
	
		<feColorMatrix  in="shadowBlurOuter1" values="0 0 0 0 0.164705882 0 0 0 0 0.0431372549 0 0 0 0 0.164705882 0 0 0 0.252774004 0">
		</feColorMatrix>
</filter>
<filter  filterUnits="objectBoundingBox" height="200%" id="o" width="200%" x="-50%" y="-50%">
	<feOffset  dy="1" in="SourceAlpha" result="shadowOffsetOuter1"></feOffset>
	<feGaussianBlur  in="shadowOffsetOuter1" result="shadowBlurOuter1" stdDeviation="1"></feGaussianBlur>
	
		<feColorMatrix  in="shadowBlurOuter1" values="0 0 0 0 0.164705882 0 0 0 0 0.0431372549 0 0 0 0 0.164705882 0 0 0 0.252774004 0">
		</feColorMatrix>
</filter>
<filter  filterUnits="objectBoundingBox" height="200%" id="m" width="200%" x="-50%" y="-50%">
	<feOffset  dy="1" in="SourceAlpha" result="shadowOffsetOuter1"></feOffset>
	<feGaussianBlur  in="shadowOffsetOuter1" result="shadowBlurOuter1" stdDeviation="1"></feGaussianBlur>
	
		<feColorMatrix  in="shadowBlurOuter1" values="0 0 0 0 0.164705882 0 0 0 0 0.0431372549 0 0 0 0 0.164705882 0 0 0 0.252774004 0">
		</feColorMatrix>
</filter>
<filter  filterUnits="objectBoundingBox" height="200%" id="k" width="200%" x="-50%" y="-50%">
	<feOffset  dy="1" in="SourceAlpha" result="shadowOffsetOuter1"></feOffset>
	<feGaussianBlur  in="shadowOffsetOuter1" result="shadowBlurOuter1" stdDeviation="1"></feGaussianBlur>
	
		<feColorMatrix  in="shadowBlurOuter1" values="0 0 0 0 0.164705882 0 0 0 0 0.0431372549 0 0 0 0 0.164705882 0 0 0 0.252774004 0">
		</feColorMatrix>
</filter>
<filter  filterUnits="objectBoundingBox" height="200%" id="i" width="200%" x="-50%" y="-50%">
	<feOffset  dy="1" in="SourceAlpha" result="shadowOffsetOuter1"></feOffset>
	<feGaussianBlur  in="shadowOffsetOuter1" result="shadowBlurOuter1" stdDeviation="1"></feGaussianBlur>
	
		<feColorMatrix  in="shadowBlurOuter1" values="0 0 0 0 0.164705882 0 0 0 0 0.0431372549 0 0 0 0 0.164705882 0 0 0 0.252774004 0">
		</feColorMatrix>
</filter>
<filter  filterUnits="objectBoundingBox" height="200%" id="h" width="200%" x="-50%" y="-50%">
	<feGaussianBlur  in="SourceAlpha" result="shadowBlurInner1" stdDeviation=".5"></feGaussianBlur>
	<feOffset  dy="1" in="shadowBlurInner1" result="shadowOffsetInner1"></feOffset>
	<feComposite  in="shadowOffsetInner1" in2="SourceAlpha" k2="-1" k3="1" operator="arithmetic" result="shadowInnerInner1">
		</feComposite>
	<feColorMatrix  in="shadowInnerInner1" values="0 0 0 0 0.419607843 0 0 0 0 0.921568627 0 0 0 0 0.8 0 0 0 0.150701993 0">
		</feColorMatrix>
</filter>
<filter  filterUnits="objectBoundingBox" height="200%" id="e" width="200%" x="-50%" y="-50%">
	<feOffset  dy="1" in="SourceAlpha" result="shadowOffsetOuter1"></feOffset>
	<feGaussianBlur  in="shadowOffsetOuter1" result="shadowBlurOuter1" stdDeviation="1"></feGaussianBlur>
	
		<feColorMatrix  in="shadowBlurOuter1" values="0 0 0 0 0.164705882 0 0 0 0 0.0431372549 0 0 0 0 0.164705882 0 0 0 0.252774004 0">
		</feColorMatrix>
</filter>
<defs>
	<filter id="Adobe_OpacityMaskFilter" filterUnits="userSpaceOnUse" x="0" y="0" width="420" height="338">
		<feColorMatrix  type="matrix" values="1 0 0 0 0  0 1 0 0 0  0 0 1 0 0  0 0 0 1 0"/>
	</filter>
</defs>
<mask maskUnits="userSpaceOnUse" x="0" y="0" width="420" height="338" id="c">
	<g class="st0">
		<circle id="a" class="st1" cx="297.5" cy="13.5" r="3.5"/>
	</g>
</mask>
<g class="st2">
	<path class="st1" d="M5,0h410c2.8,0,5,2.2,5,5v328c0,2.8-2.2,5-5,5H5c-2.8,0-5-2.2-5-5V5C0,2.2,2.2,0,5,0z"/>
	<path class="st3" d="M10,6h90c2.2,0,4,1.8,4,4v319c0,2.2-1.8,4-4,4H10c-2.2,0-4-1.8-4-4V10C6,7.8,7.8,6,10,6z"/>
	
		<linearGradient id="SVGID_1_" gradientUnits="userSpaceOnUse" x1="134.0938" y1="244.2901" x2="134.0938" y2="243.2901" gradientTransform="matrix(96 0 0 -324 -12818 79157)">
		<stop  offset="0" style="stop-color:#6D396D"/>
		<stop  offset="1" style="stop-color:#592D59"/>
	</linearGradient>
	<path class="st4" d="M10,7h90c1.7,0,3,1.3,3,3v318c0,1.7-1.3,3-3,3H10c-1.7,0-3-1.3-3-3V10C7,8.3,8.3,7,10,7z"/>
	<path class="st5" d="M60.5,322.3l1.8,1.8l-1.4,1.4l-1.9-1.9c-0.5,0.2-1,0.3-1.5,0.3c-1.9,0-3.5-1.6-3.5-3.5s1.6-3.5,3.5-3.5
		s3.5,1.6,3.5,3.5C61,321.2,60.8,321.8,60.5,322.3L60.5,322.3z M57.5,322c0.8,0,1.5-0.7,1.5-1.5s-0.7-1.5-1.5-1.5s-1.5,0.7-1.5,1.5
		S56.7,322,57.5,322z M48,321h5v2h-5V321z M48,318h5v2h-5V318z M48,315h7l-1,2h-6V315z"/>
	<path class="st6" d="M113,312h297c1.1,0,2,0.9,2,2v14c0,1.1-0.9,2-2,2H113c-1.1,0-2-0.9-2-2v-14C111,312.9,111.9,312,113,312z"/>
	<path class="st7" d="M110,27h303v2H110V27z"/>
	<path class="st8" d="M110,54h303v1H110V54z M110,80h303v1H110V80z M110,106h303v1H110V106z M110,132h303v1H110V132z M110,158h303v1
		H110V158z M110,184h303v1H110V184z M110,210h303v1H110V210z M110,236h303v1H110V236z M110,262h303v1H110V262z M110,288h303v1H110
		V288z"/>
	<path class="st7" d="M130,313h2v16h-2V313z"/>
	<path class="st9" d="M122,320v-4h-2v4h-4v2h4v4h2v-4h4v-2H122z M403,326c2.8,0,5-2.2,5-5s-2.2-5-5-5s-5,2.2-5,5S400.2,326,403,326z
		 M406.3,322.4c-0.5,1.3-1.8,2.1-3.3,2.1c-1.5,0-2.7-0.9-3.3-2.1h1.1c0.6,0.5,1.3,0.7,2.1,0.7s1.5-0.2,2.1-0.7H406.3L406.3,322.4z
		 M401.2,321c0.6,0,1.1-0.5,1.1-1.1c0-0.6-0.5-1.1-1.1-1.1c-0.6,0-1.1,0.5-1.1,1.1C400.1,320.5,400.6,321,401.2,321L401.2,321z
		 M404.8,321c0.6,0,1.1-0.5,1.1-1.1c0-0.6-0.5-1.1-1.1-1.1c-0.6,0-1.1,0.5-1.1,1.1C403.7,320.5,404.2,321,404.8,321L404.8,321z"/>
	<path d="M409,12c0.5,0,1-0.4,1-1s-0.5-1-1-1s-1,0.4-1,1S408.5,12,409,12z M409,15c0.5,0,1-0.4,1-1s-0.5-1-1-1s-1,0.4-1,1
		S408.5,15,409,15z M409,18c0.5,0,1-0.5,1-1s-0.5-1-1-1s-1,0.5-1,1S408.5,18,409,18z M395.8,12.3h-1v0.4c-0.3-0.3-0.7-0.4-1.1-0.4
		c-1.1,0-1.9,0.9-1.9,2.3s0.8,2.3,1.9,2.3c0.5,0,1-0.2,1.3-0.6c0.3,0.4,0.7,0.6,1.2,0.6c1.3,0,2.1-1.1,2.1-2.8c0-2.3-1.8-4-4.3-4
		c-2.7,0-4.6,1.9-4.6,4.5c0,2.6,1.9,4.5,4.6,4.5c0.8,0,1.6-0.2,2.3-0.6v-0.9c-0.8,0.4-1.5,0.7-2.3,0.7c-2.2,0-3.7-1.6-3.7-3.7
		c0-2.2,1.5-3.7,3.6-3.7c2,0,3.4,1.4,3.4,3.3c0,1.1-0.5,1.9-1,1.9c-0.4,0-0.6-0.3-0.6-0.7L395.8,12.3L395.8,12.3z M392.8,14.5
		c0-0.9,0.5-1.5,1.2-1.5c0.4,0,0.7,0.2,0.9,0.4v2c-0.3,0.3-0.6,0.4-0.9,0.4C393.2,15.9,392.8,15.3,392.8,14.5z"/>
	<g>
		<circle id="a_1_" class="st10" cx="297.5" cy="13.5" r="3.5"/>
	</g>
	<path class="st11" d="M10,53h83c1.7,0,3,1.3,3,3v6c0,1.7-1.3,3-3,3H10c-1.7,0-3-1.3-3-3v-6C7,54.3,8.3,53,10,53z"/>
	<path class="st12" d="M298.8,16.4l1.4-1.4l2.1,2.1l-1.4,1.4L298.8,16.4z"/>
	
		<linearGradient id="SVGID_2_" gradientUnits="userSpaceOnUse" x1="133.9659" y1="254.4444" x2="133.9659" y2="253.4444" gradientTransform="matrix(88 0 0 -9 -11738 2344)">
		<stop  offset="0" style="stop-color:#44C097"/>
		<stop  offset="9.999999e-02" style="stop-color:#3CB78D"/>
		<stop  offset="1" style="stop-color:#2DA879"/>
	</linearGradient>
	<path class="st13" d="M7,54h86c1.1,0,2,0.9,2,2v5c0,1.1-0.9,2-2,2H7V54z"/>
	<path class="st7" d="M264,10h1v8h-1V10z M266,12h2v1h-2V12z M266,15h2v1h-2V15z"/>
	<path class="st14" d="M14,72.7h0.6L14.5,74h0.6l0.2-1.3h1.1L16.2,74h0.6l0.2-1.3h0.7v-0.6h-0.6l0.1-1.1h0.7v-0.6h-0.6l0.2-1.3h-0.6
		l-0.2,1.3h-1.1l0.2-1.3h-0.6L15,70.5h-0.7v0.6h0.6l-0.1,1.1H14L14,72.7L14,72.7z M15.5,71.1h1.1l-0.1,1.1h-1.1L15.5,71.1L15.5,71.1
		z M14.1,85.7h0.6L14.5,87h0.6l0.2-1.3h1.1L16.2,87h0.6l0.2-1.3h0.7v-0.6h-0.6l0.1-1.1h0.7v-0.6h-0.6l0.2-1.3h-0.6l-0.2,1.3h-1.1
		l0.2-1.3h-0.6L15,83.5h-0.7v0.6h0.6l-0.1,1.1H14L14.1,85.7L14.1,85.7z M15.5,84.1h1.1l-0.1,1.1h-1.1L15.5,84.1L15.5,84.1z
		 M14.1,98.7h0.6l-0.1,1.3h0.6l0.2-1.3h1.1l-0.2,1.3h0.6l0.2-1.3h0.7v-0.6h-0.6l0.1-1.1h0.7v-0.6h-0.6l0.2-1.3h-0.6l-0.2,1.3h-1.1
		l0.2-1.3h-0.6L15,96.5h-0.7v0.6h0.6l-0.1,1.1H14L14.1,98.7L14.1,98.7z M15.5,97.1h1.1l-0.1,1.1h-1.1L15.5,97.1L15.5,97.1z
		 M14.1,111.7h0.6l-0.1,1.3h0.6l0.2-1.3h1.1l-0.2,1.3h0.6l0.2-1.3h0.7v-0.6h-0.6l0.1-1.1h0.7v-0.6h-0.6l0.2-1.3h-0.6l-0.2,1.3h-1.1
		l0.2-1.3h-0.6l-0.2,1.3h-0.7v0.6h0.6l-0.1,1.1H14L14.1,111.7L14.1,111.7z M15.5,110.1h1.1l-0.1,1.1h-1.1L15.5,110.1L15.5,110.1z
		 M14.1,124.7h0.6l-0.1,1.3h0.6l0.2-1.3h1.1l-0.2,1.3h0.6l0.2-1.3h0.7v-0.6h-0.6l0.1-1.1h0.7v-0.6h-0.6l0.2-1.3h-0.6l-0.2,1.3h-1.1
		l0.2-1.3h-0.6l-0.2,1.3h-0.7v0.6h0.6l-0.1,1.1H14L14.1,124.7L14.1,124.7z M15.6,123.1h1.1l-0.1,1.1h-1.1L15.6,123.1L15.6,123.1z
		 M14.1,137.7h0.6l-0.1,1.3h0.6l0.2-1.3h1.1l-0.2,1.3h0.6l0.2-1.3h0.7v-0.6h-0.6l0.1-1.1h0.7v-0.6h-0.6l0.2-1.3h-0.6l-0.2,1.3h-1.1
		l0.2-1.3h-0.6l-0.2,1.3h-0.7v0.6h0.6l-0.1,1.1H14L14.1,137.7L14.1,137.7z M15.6,136.1h1.1l-0.1,1.1h-1.1L15.6,136.1L15.6,136.1z"/>
	<circle class="st15" cx="15.5" cy="175.5" r="1.5"/>
	<path class="st1" d="M14,59.7h0.6L14.5,61h0.6l0.2-1.3h1.1L16.2,61h0.6l0.2-1.3h0.7v-0.6h-0.6l0.1-1.1h0.7v-0.6h-0.6l0.2-1.3h-0.6
		l-0.2,1.3h-1.1l0.2-1.3h-0.6L15,57.5h-0.7V58h0.6l-0.1,1.1H14L14,59.7L14,59.7z M15.5,58h1.1l-0.1,1.1h-1.1L15.5,58L15.5,58z"/>
	<g class="st16">
		<circle id="f_4_" cx="15.5" cy="26.5" r="1.5"/>
	</g>
	<g>
		<circle id="f_1_" class="st17" cx="15.5" cy="26.5" r="1.5"/>
	</g>
	<g>
		
			<linearGradient id="f_4_" gradientUnits="userSpaceOnUse" x1="90.5" y1="275.3333" x2="90.5" y2="274.3333" gradientTransform="matrix(3 0 0 -3 -256 851)">
			<stop  offset="0" style="stop-color:#000000;stop-opacity:0"/>
			<stop  offset="1" style="stop-color:#000000;stop-opacity:0.4"/>
		</linearGradient>
		<circle id="f_2_" class="st18" cx="15.5" cy="26.5" r="1.5"/>
	</g>
	<g class="st19">
		<circle id="f_6_" cx="15.5" cy="26.5" r="1.5"/>
	</g>
	<g class="st20">
		<circle id="j_2_" cx="15.5" cy="174.5" r="1.5"/>
	</g>
	<g>
		<circle id="j_1_" class="st21" cx="15.5" cy="174.5" r="1.5"/>
	</g>
	<circle class="st15" cx="15.5" cy="188.5" r="1.5"/>
	<g class="st22">
		<circle id="l_2_" cx="15.5" cy="187.5" r="1.5"/>
	</g>
	<g>
		<circle id="l_1_" class="st21" cx="15.5" cy="187.5" r="1.5"/>
	</g>
	<circle class="st15" cx="15.5" cy="201.5" r="1.5"/>
	<g class="st23">
		<circle id="n_2_" cx="15.5" cy="200.5" r="1.5"/>
	</g>
	<g>
		<circle id="n_1_" class="st21" cx="15.5" cy="200.5" r="1.5"/>
	</g>
	<circle class="st15" cx="15.5" cy="214.5" r="1.5"/>
	<g class="st24">
		<circle id="p_2_" cx="15.5" cy="213.5" r="1.5"/>
	</g>
	<g>
		<circle id="p_1_" class="st21" cx="15.5" cy="213.5" r="1.5"/>
	</g>
	<circle class="st15" cx="15.5" cy="227.5" r="1.5"/>
	<g class="st25">
		<circle id="r_2_" cx="15.5" cy="226.5" r="1.5"/>
	</g>
	<g>
		<circle id="r_1_" class="st21" cx="15.5" cy="226.5" r="1.5"/>
	</g>
	<circle class="st26" cx="15.5" cy="239.5" r="1.5"/>
	<circle class="st26" cx="15.5" cy="252.5" r="1.5"/>
	<circle class="st26" cx="15.5" cy="265.5" r="1.5"/>
	<path class="st27" d="M92,44v-1h-1v1h-1v1h1v1h1v-1h1v-1H92z"/>
	<circle class="st28" cx="91.5" cy="44.5" r="3.5"/>
	<path class="st27" d="M92,159v-1h-1v1h-1v1h1v1h1v-1h1v-1H92z"/>
	<circle class="st28" cx="91.5" cy="159.5" r="3.5"/>
	<path class="st29" d="M21,70h39c0.6,0,1,0.4,1,1v1c0,0.6-0.4,1-1,1H21c-0.6,0-1-0.4-1-1v-1C20,70.4,20.4,70,21,70z"/>
	<path class="st29" d="M21,25h8c0.6,0,1,0.4,1,1v1c0,0.6-0.4,1-1,1h-8c-0.6,0-1-0.4-1-1v-1C20,25.4,20.4,25,21,25z"/>
	<path class="st29" d="M21,83h30c0.6,0,1,0.4,1,1v1c0,0.6-0.4,1-1,1H21c-0.6,0-1-0.4-1-1v-1C20,83.4,20.4,83,21,83z"/>
	<path class="st29" d="M21,96h32c0.6,0,1,0.4,1,1v1c0,0.6-0.4,1-1,1H21c-0.6,0-1-0.4-1-1v-1C20,96.4,20.4,96,21,96z"/>
	<path class="st29" d="M21,109h14c0.6,0,1,0.4,1,1v1c0,0.6-0.4,1-1,1H21c-0.6,0-1-0.4-1-1v-1C20,109.4,20.4,109,21,109z"/>
	<path class="st29" d="M21,122h28c0.6,0,1,0.4,1,1v1c0,0.6-0.4,1-1,1H21c-0.6,0-1-0.4-1-1v-1C20,122.4,20.4,122,21,122z"/>
	<path class="st29" d="M21,135h21c0.6,0,1,0.4,1,1v1c0,0.6-0.4,1-1,1H21c-0.6,0-1-0.4-1-1v-1C20,135.4,20.4,135,21,135z"/>
	<path class="st29" d="M21,173h24c0.6,0,1,0.4,1,1v1c0,0.6-0.4,1-1,1H21c-0.6,0-1-0.4-1-1v-1C20,173.4,20.4,173,21,173z"/>
	<path class="st29" d="M21,186h10c0.6,0,1,0.4,1,1v1c0,0.6-0.4,1-1,1H21c-0.6,0-1-0.4-1-1v-1C20,186.4,20.4,186,21,186z"/>
	<path class="st29" d="M21,199h7c0.6,0,1,0.4,1,1v1c0,0.6-0.4,1-1,1h-7c-0.6,0-1-0.4-1-1v-1C20,199.4,20.4,199,21,199z"/>
	<path class="st29" d="M21,212h17c0.6,0,1,0.4,1,1v1c0,0.6-0.4,1-1,1H21c-0.6,0-1-0.4-1-1v-1C20,212.4,20.4,212,21,212z"/>
	<path class="st29" d="M21,225h11c0.6,0,1,0.4,1,1v1c0,0.6-0.4,1-1,1H21c-0.6,0-1-0.4-1-1v-1C20,225.4,20.4,225,21,225z"/>
	<path class="st29" d="M21,238h13c0.6,0,1,0.4,1,1v1c0,0.6-0.4,1-1,1H21c-0.6,0-1-0.4-1-1v-1C20,238.4,20.4,238,21,238z"/>
	<path class="st29" d="M21,251h20c0.6,0,1,0.4,1,1v1c0,0.6-0.4,1-1,1H21c-0.6,0-1-0.4-1-1v-1C20,251.4,20.4,251,21,251z"/>
	<path class="st29" d="M21,264h19c0.6,0,1,0.4,1,1v1c0,0.6-0.4,1-1,1H21c-0.6,0-1-0.4-1-1v-1C20,264.4,20.4,264,21,264z"/>
	<path class="st14" d="M21,57h18c0.6,0,1,0.4,1,1v1c0,0.6-0.4,1-1,1H21c-0.6,0-1-0.4-1-1v-1C20,57.4,20.4,57,21,57z"/>
	<path class="st30" d="M15,42h34c0.6,0,1,0.4,1,1v3c0,0.6-0.4,1-1,1H15c-0.6,0-1-0.4-1-1v-3C14,42.4,14.4,42,15,42z"/>
	<path class="st14" d="M15,16h20c0.6,0,1,0.4,1,1v3c0,0.6-0.4,1-1,1H15c-0.6,0-1-0.4-1-1v-3C14,16.4,14.4,16,15,16z"/>
	<path class="st30" d="M15,157h58c0.6,0,1,0.4,1,1v3c0,0.6-0.4,1-1,1H15c-0.6,0-1-0.4-1-1v-3C14,157.4,14.4,157,15,157z"/>
	<path class="st7" d="M279,7h2v14h-2V7z"/>
	<path class="st6" d="M260,10h8c0.6,0,1,0.4,1,1v6c0,0.6-0.4,1-1,1h-8c-0.6,0-1-0.4-1-1v-6C259,10.4,259.4,10,260,10z"/>
	<path class="st6" d="M293,8h84c1.1,0,2,0.9,2,2v8c0,1.1-0.9,2-2,2h-84c-1.1,0-2-0.9-2-2v-8C291,8.9,291.9,8,293,8z"/>
	<path class="st31" d="M5,1h410c2.2,0,4,1.8,4,4v328c0,2.2-1.8,4-4,4H5c-2.2,0-4-1.8-4-4V5C1,2.8,2.8,1,5,1z"/>
	<g>
		<path class="st32" d="M253.3,210.7h-10.4v1.1c3.2,0,3.8,0.7,3.8,4.8v7.4c0,4.1-0.5,4.9-3.8,4.9c-2.5-0.3-4.2-1.7-6.5-4.2l-2.7-2.9
			c3.6-0.6,5.5-2.9,5.5-5.5c0-3.2-2.7-5.6-7.8-5.6h-10.2v1.1c3.2,0,3.8,0.7,3.8,4.8v7.4c0,4.1-0.5,4.9-3.8,4.9v1.1h11.5v-1.1
			c-3.2,0-3.8-0.8-3.8-4.9v-2.1h1l6.4,8.1h16.9c8.3,0,11.9-4.4,11.9-9.7C265.2,215,261.6,210.7,253.3,210.7z M229,220.1v-7.7h2.4
			c2.6,0,3.8,1.8,3.8,3.9c0,2-1.2,3.8-3.8,3.8H229z M253.4,228.2H253c-2.1,0-2.4-0.5-2.4-3.2v-12.6c0,0,2.6,0,2.8,0
			c6,0,7.1,4.4,7.1,7.8C260.6,223.8,259.5,228.2,253.4,228.2z"/>
		<path class="st32" d="M188.9,222.2l4-11.8c1.2-3.4,0.6-4.4-3.1-4.4v-1.2h10.9v1.2c-3.7,0-4.5,0.9-6,5.1l-6.6,19.8h-0.8l-5.9-18.1
			l-6,18.1h-0.8l-6.4-19.8c-1.4-4.2-2.3-5.1-5.7-5.1v-1.2h12.9v1.2c-3.4,0-4.3,0.8-3.1,4.4l3.9,11.8l5.9-17.4h1.1L188.9,222.2z"/>
		<path class="st32" d="M208.6,230.7c-6.4,0-11.6-4.7-11.6-10.4c0-5.7,5.2-10.4,11.6-10.4c6.4,0,11.6,4.7,11.6,10.4
			C220.2,226,215,230.7,208.6,230.7z M208.6,211.7c-5.3,0-7.2,4.8-7.2,8.6c0,3.8,1.9,8.6,7.2,8.6c5.4,0,7.2-4.8,7.2-8.6
			C215.9,216.5,214,211.7,208.6,211.7z"/>
		<path class="st33" d="M279.5,228.8v1.2h-13.3v-1.2c3.9,0,4.6-1,4.6-6.8v-9.3c0-5.8-0.7-6.7-4.6-6.7v-1.2h12c6,0,9.3,3.1,9.3,7.2
			c0,4-3.3,7.1-9.3,7.1h-3.3v2.8C274.9,227.8,275.6,228.8,279.5,228.8z M278.2,206.9h-3.3V217h3.3c3.2,0,4.8-2.3,4.8-5
			C283,209.3,281.4,206.9,278.2,206.9z"/>
		<path class="st33" d="M327.3,224.5l-0.3,1c-0.5,1.9-1.2,2.6-5.3,2.6h-0.8c-3,0-3.5-0.7-3.5-4.8v-2.7c4.5,0,4.9,0.4,4.9,3.4h1.1
			v-8.6h-1.1c0,3-0.3,3.4-4.9,3.4v-6.5h3.2c4.1,0,4.8,0.7,5.3,2.6l0.3,1.1h0.9l-0.4-5.4h-17v1.1c3.2,0,3.8,0.7,3.8,4.8v7.4
			c0,3.8-0.4,4.7-3,4.8c-2.4-0.4-4.1-1.7-6.4-4.2l-2.7-2.9c3.6-0.6,5.5-2.9,5.5-5.5c0-3.2-2.7-5.6-7.8-5.6h-10.2v1.1
			c3.2,0,3.8,0.7,3.8,4.8v7.4c0,4.1-0.5,4.9-3.8,4.9v1.1h11.5v-1.1c-3.2,0-3.8-0.8-3.8-4.9v-2.1h1l6.4,8.1h23.8l0.3-5.4H327.3z
			 M296.6,220.1v-7.7h2.4c2.6,0,3.8,1.8,3.8,3.9c0,2-1.2,3.8-3.8,3.8H296.6z"/>
		<path class="st33" d="M339.1,230.7c-2.3,0-4.3-1.2-5.2-2c-0.3,0.3-0.8,1.2-0.9,2h-1.1v-8h1.2c0.5,3.8,3.1,6.1,6.6,6.1
			c1.9,0,3.4-1,3.4-2.8c0-1.5-1.3-2.7-3.7-3.8l-3.3-1.6c-2.3-1.1-4.1-3-4.1-5.6c0-2.8,2.6-5.2,6.2-5.2c1.9,0,3.5,0.7,4.5,1.5
			c0.3-0.2,0.6-0.9,0.8-1.6h1.1v6.8h-1.2c-0.4-2.7-1.9-5-5-5c-1.6,0-3.1,0.9-3.1,2.4c0,1.5,1.2,2.3,4,3.6l3.2,1.6
			c2.8,1.3,3.9,3.5,3.9,5.2C346.1,228.2,343,230.7,339.1,230.7z"/>
		<path class="st33" d="M356.9,230.7c-2.3,0-4.3-1.2-5.2-2c-0.3,0.3-0.8,1.2-0.9,2h-1.1v-8h1.2c0.5,3.8,3.1,6.1,6.6,6.1
			c1.9,0,3.4-1,3.4-2.8c0-1.5-1.3-2.7-3.7-3.8l-3.3-1.6c-2.3-1.1-4.1-3-4.1-5.6c0-2.8,2.6-5.2,6.2-5.2c1.9,0,3.5,0.7,4.5,1.5
			c0.3-0.2,0.6-0.9,0.8-1.6h1.1v6.8H361c-0.4-2.7-1.9-5-5-5c-1.6,0-3.1,0.9-3.1,2.4c0,1.5,1.2,2.3,4,3.6l3.2,1.6
			c2.8,1.3,3.9,3.5,3.9,5.2C364,228.2,360.8,230.7,356.9,230.7z"/>
		<g>
			<path class="st33" d="M225.6,149.6c0,14.8,8.6,27.6,21.1,33.7l-17.9-49C226.8,139,225.6,144.2,225.6,149.6z"/>
			<path class="st33" d="M288.4,147.7c0-4.6-1.7-7.8-3.1-10.3c-1.9-3.1-3.7-5.7-3.7-8.8c0-3.4,2.6-6.6,6.3-6.6c0.2,0,0.3,0,0.5,0
				c-6.7-6.1-15.5-9.8-25.3-9.8c-13.1,0-24.6,6.7-31.3,16.9c0.9,0,1.7,0,2.4,0c3.9,0,10-0.5,10-0.5c2-0.1,2.3,2.8,0.2,3.1
				c0,0-2,0.2-4.3,0.4l13.6,40.6L262,148l-5.8-16c-2-0.1-3.9-0.4-3.9-0.4c-2-0.1-1.8-3.2,0.2-3.1c0,0,6.2,0.5,9.9,0.5
				c3.9,0,10-0.5,10-0.5c2-0.1,2.3,2.8,0.2,3.1c0,0-2,0.2-4.3,0.4l13.5,40.3l3.7-12.5C287.2,154.6,288.4,150.9,288.4,147.7z"/>
			<path class="st33" d="M263.8,152.9l-11.2,32.7c3.4,1,6.9,1.5,10.6,1.5c4.4,0,8.5-0.8,12.4-2.1c-0.1-0.2-0.2-0.3-0.3-0.5
				L263.8,152.9z"/>
			<path class="st33" d="M296,131.6c0.2,1.2,0.3,2.5,0.3,3.9c0,3.8-0.7,8.1-2.8,13.4L281.9,182c11.1-6.5,18.6-18.6,18.6-32.4
				C300.6,143.1,298.9,137,296,131.6z"/>
			<path class="st33" d="M263.1,105.9c-24.1,0-43.7,19.6-43.7,43.7c0,24.1,19.6,43.7,43.7,43.7c24.1,0,43.7-19.6,43.7-43.7
				C306.8,125.5,287.2,105.9,263.1,105.9z M263.1,191.3c-23,0-41.7-18.7-41.7-41.7c0-23,18.7-41.7,41.7-41.7
				c23,0,41.7,18.7,41.7,41.7C304.8,172.6,286.1,191.3,263.1,191.3z"/>
		</g>
	</g>
</g>
</svg>
